<svg width="276" height="40" viewBox="0 0 276 40" fill="none" xmlns="http://www.w3.org/2000/svg">
<path d="M106.61 7.55319V11.0421C104.422 9.95355 102.019 9.35786 99.5721 9.29763C98.4118 9.26734 97.2593 9.49257 96.1974 9.95712C95.1355 10.4217 94.1908 11.1139 93.4313 11.9841C91.7645 13.9238 90.8974 16.4157 91.0032 18.9618C90.9562 20.2491 91.1755 21.5322 91.6475 22.7322C92.1196 23.9323 92.8344 25.0238 93.748 25.9396C94.6659 26.8545 95.7654 27.5704 96.977 28.0418C98.1885 28.5133 99.4857 28.73 100.786 28.6784C101.611 28.6566 102.434 28.5809 103.25 28.4516V22.0844H98.6395V19.3107H106.909V30.4751C104.588 31.2445 102.16 31.6506 99.7129 31.6788C98.0291 31.7409 96.35 31.4638 94.7774 30.8641C93.2047 30.2644 91.7711 29.3547 90.5633 28.1899C89.3883 27.0034 88.47 25.5914 87.8649 24.0406C87.2598 22.4898 86.9805 20.8328 87.0442 19.1712C86.9729 17.4825 87.248 15.797 87.8529 14.2168C88.4578 12.6366 89.3799 11.1945 90.5633 9.97797C91.7704 8.80206 93.2089 7.88538 94.7891 7.28511C96.3694 6.68484 98.0575 6.41386 99.748 6.48909C102.075 6.51714 104.386 6.87548 106.61 7.55319Z" fill="url(#paint0_linear_362_372)" stroke="url(#paint1_linear_362_372)" stroke-width="1.2" stroke-miterlimit="10"/>
<path d="M111.361 31.0857V6.97754H118.681C126.74 6.97754 130.769 10.8269 130.769 18.5257C130.913 21.6162 129.988 24.6628 128.147 27.1607C127.106 28.5143 125.696 29.5436 124.083 30.1263C122.016 30.7893 119.849 31.0903 117.678 31.0159L111.361 31.0857ZM115.092 28.312H116.957C120.476 28.312 123.045 27.6143 124.54 26.2187C126.036 24.8232 126.81 22.4682 126.81 19.2409C127.044 16.6779 126.317 14.1193 124.769 12.0539C123.84 11.2302 122.749 10.6065 121.565 10.2222C120.381 9.83784 119.129 9.70123 117.889 9.82098H115.092V28.312Z" fill="url(#paint2_linear_362_372)" stroke="url(#paint3_linear_362_372)" stroke-width="1.2" stroke-miterlimit="10"/>
<path d="M152.974 30.2833C150.712 31.0777 148.336 31.5076 145.936 31.5567C142.973 31.7554 140.05 30.7833 137.807 28.8528C136.816 27.8359 136.05 26.6246 135.559 25.2967C135.068 23.9687 134.863 22.5537 134.957 21.1424C134.849 18.2963 135.822 15.5138 137.684 13.3448C138.553 12.3473 139.636 11.5553 140.854 11.0271C142.072 10.4988 143.393 10.2476 144.722 10.292C145.893 10.1946 147.071 10.373 148.16 10.8125C149.248 11.2521 150.217 11.9404 150.986 12.8214C152.519 15.15 153.231 17.9167 153.009 20.6889V21.8751H138.933C139.215 26.5269 141.719 28.8528 146.446 28.8528C148.716 28.7982 150.955 28.3188 153.045 27.4398L152.974 30.2833ZM139.004 19.1886H148.91V18.6653C148.91 14.9845 147.379 13.1529 144.282 13.1529C143.597 13.1312 142.915 13.2625 142.288 13.5373C141.66 13.8121 141.103 14.2232 140.658 14.7403C139.654 16.017 139.076 17.5716 139.004 19.1886Z" fill="url(#paint4_linear_362_372)" stroke="url(#paint5_linear_362_372)" stroke-width="1.2" stroke-miterlimit="10"/>
<path d="M174.634 30.4404C172.513 31.1744 170.282 31.5517 168.036 31.5568C165.018 31.7508 162.045 30.7538 159.766 28.7832C158.767 27.7413 157.995 26.5066 157.499 25.156C157.002 23.8055 156.792 22.368 156.88 20.9332C156.792 19.5066 156.999 18.0772 157.49 16.7332C157.98 15.3891 158.742 14.1588 159.731 13.1181C160.802 12.1435 162.059 11.3913 163.428 10.906C164.797 10.4206 166.25 10.2119 167.701 10.2921C169.901 10.3108 172.087 10.6397 174.194 11.269V14.3567C172.204 13.5861 170.099 13.1499 167.965 13.0658C166.985 13.0159 166.006 13.1771 165.094 13.5385C164.183 13.8999 163.362 14.4528 162.687 15.1591C161.351 16.7803 160.691 18.8455 160.839 20.9332C160.776 21.9831 160.926 23.0349 161.28 24.0265C161.633 25.0181 162.184 25.9296 162.898 26.7073C163.642 27.4249 164.528 27.9815 165.5 28.3419C166.472 28.7022 167.51 28.8584 168.546 28.8006C170.634 28.7436 172.696 28.3183 174.634 27.5446V30.4404Z" fill="url(#paint6_linear_362_372)" stroke="url(#paint7_linear_362_372)" stroke-width="1.2" stroke-miterlimit="10"/>
<path d="M187.021 31.5567C185.71 31.615 184.402 31.3911 183.187 30.9002C181.972 30.4093 180.879 29.6632 179.983 28.7132C178.146 26.5419 177.204 23.7634 177.344 20.933C177.18 18.1084 178.105 15.3276 179.93 13.1528C181.833 11.3302 184.375 10.3115 187.021 10.3115C189.667 10.3115 192.209 11.3302 194.112 13.1528C195.937 15.3276 196.862 18.1084 196.699 20.933C196.865 23.7633 195.94 26.5505 194.112 28.7307C193.21 29.6863 192.107 30.4345 190.882 30.9227C189.657 31.4109 188.339 31.6273 187.021 31.5567ZM187.021 28.783C187.839 28.8117 188.65 28.6367 189.382 28.2741C190.113 27.9114 190.741 27.3727 191.209 26.7071C192.317 24.9834 192.847 22.9561 192.722 20.9156C192.844 18.8808 192.315 16.8598 191.209 15.1415C190.716 14.5014 190.081 13.9827 189.353 13.6256C188.626 13.2685 187.824 13.0827 187.012 13.0827C186.2 13.0827 185.399 13.2685 184.671 13.6256C183.943 13.9827 183.308 14.5014 182.816 15.1415C181.689 16.86 181.135 18.8857 181.232 20.933C181.116 22.9727 181.645 24.9975 182.745 26.7246C183.225 27.3974 183.869 27.9389 184.616 28.2988C185.364 28.6587 186.191 28.8253 187.021 28.783Z" fill="url(#paint8_linear_362_372)" stroke="url(#paint9_linear_362_372)" stroke-width="1.2" stroke-miterlimit="10"/>
<path d="M213.555 31.0857V27.2654C212.919 28.5112 211.959 29.566 210.774 30.3205C209.59 31.075 208.223 31.5018 206.816 31.5567C205.75 31.5899 204.693 31.3641 203.736 30.8988C202.779 30.4336 201.952 29.7431 201.326 28.8877C199.884 26.7342 199.18 24.1771 199.32 21.5959C199.179 18.6836 200.014 15.8069 201.696 13.4145C202.403 12.4308 203.342 11.6325 204.43 11.0885C205.518 10.5445 206.723 10.2712 207.942 10.292C209.03 10.2926 210.103 10.5435 211.077 11.0247C212.051 11.506 212.899 12.2046 213.555 13.0656V1.5H217.267V31.1555L213.555 31.0857ZM213.555 15.8393C212.942 15.0541 212.173 14.4026 211.295 13.9254C210.417 13.4481 209.449 13.1555 208.452 13.0656C207.68 13.0497 206.918 13.2406 206.246 13.6182C205.574 13.9958 205.017 14.5462 204.634 15.2113C203.635 17.0562 203.173 19.1395 203.297 21.2296C203.297 26.0094 204.74 28.4167 207.625 28.4167C209.719 28.4167 211.707 27.1084 213.555 24.4917V15.8393Z" fill="url(#paint10_linear_362_372)" stroke="url(#paint11_linear_362_372)" stroke-width="1.2" stroke-miterlimit="10"/>
<path d="M227.455 31.0857V13.5192H219.941V10.7455H231.132V31.0857H227.455ZM226.98 6.12277V1.5H231.66V6.12277H226.98Z" fill="url(#paint12_linear_362_372)" stroke="url(#paint13_linear_362_372)" stroke-width="1.2" stroke-miterlimit="10"/>
<path d="M236.446 31.0858V10.7456H240.176V14.5659C240.833 13.2757 241.84 12.1925 243.083 11.4376C244.326 10.6827 245.757 10.286 247.215 10.2921C251.121 10.2921 253.056 12.5773 253.056 17.1652V31.1207H249.344V18.2118C249.438 17.0341 249.175 15.8554 248.587 14.8276C248.282 14.4753 247.895 14.2011 247.46 14.028C247.025 13.8549 246.555 13.7882 246.088 13.8333C244.223 13.8333 242.27 15.159 240.229 17.828V31.1207L236.446 31.0858Z" fill="url(#paint14_linear_362_372)" stroke="url(#paint15_linear_362_372)" stroke-width="1.2" stroke-miterlimit="10"/>
<path d="M258.651 37.8891L259.056 34.784C261.008 35.6674 263.121 36.1481 265.267 36.197C269.243 36.197 271.231 34.313 271.231 30.545L271.407 26.8817C270.804 28.1567 269.842 29.2317 268.637 29.9775C267.432 30.7233 266.036 31.1082 264.616 31.0858C263.539 31.1248 262.469 30.9039 261.497 30.442C260.525 29.9801 259.681 29.2911 259.038 28.4342C257.535 26.3621 256.779 23.8492 256.891 21.2995C256.764 18.454 257.614 15.6499 259.302 13.3448C260.017 12.3775 260.956 11.5951 262.04 11.0637C263.124 10.5323 264.321 10.2677 265.531 10.2921C267.798 10.4082 269.928 11.4046 271.46 13.0657V10.7456H274.979V27.0213C275.042 29.0178 274.865 31.0148 274.451 32.9698C274.101 34.2822 273.416 35.4835 272.463 36.4587C271.489 37.3425 270.339 38.0159 269.088 38.4363C267.837 38.8567 266.512 39.0149 265.196 38.9009C262.977 38.8714 260.774 38.5308 258.651 37.8891ZM271.302 23.9336V15.8743C270.68 15.0543 269.886 14.3784 268.975 13.8934C268.063 13.4084 267.056 13.1259 266.023 13.0657C265.25 13.0382 264.484 13.2182 263.806 13.5866C263.128 13.9551 262.562 14.4984 262.17 15.1591C261.17 16.9598 260.701 19.0028 260.815 21.0553C260.721 22.8034 261.137 24.5413 262.012 26.0618C262.363 26.6162 262.855 27.0691 263.439 27.3753C264.022 27.6815 264.677 27.8301 265.337 27.8063C267.589 27.9109 269.542 26.5328 271.231 23.8813L271.302 23.9336Z" fill="url(#paint16_linear_362_372)" stroke="url(#paint17_linear_362_372)" stroke-width="1.2" stroke-miterlimit="10"/>
<path d="M64.7686 25.9231C65.9914 26.5755 67.2919 27.0736 68.6395 27.4058C70.2499 27.7977 71.912 27.939 73.5662 27.8245C74.3964 27.7722 75.2205 27.6496 76.0295 27.4582C76.7665 27.3877 77.4623 27.0886 78.0178 26.6034C78.2875 26.226 78.4323 25.775 78.4323 25.3125C78.4323 24.85 78.2875 24.399 78.0178 24.0216C77.4802 23.2463 76.7289 22.6407 75.8536 22.2772C72.704 20.8118 68.8155 20.5327 66.4225 18.0207C65.4073 16.9587 64.7423 15.6154 64.516 14.1695C64.2896 12.7236 64.5128 11.2436 65.1556 9.92655C65.9673 8.57158 67.11 7.44105 68.4784 6.63924C69.8468 5.83743 71.3969 5.39016 72.9856 5.33867C76.1661 5.24939 79.3352 5.75234 82.3287 6.82144V12.3513C79.2584 10.794 75.8027 10.1403 72.3697 10.4673C71.652 10.4653 70.9603 10.7333 70.4342 11.2174C70.1978 11.5458 70.0707 11.9391 70.0707 12.3426C70.0707 12.746 70.1978 13.1394 70.4342 13.4678C70.8976 14.1393 71.5446 14.6659 72.2993 14.9854C75.3257 16.4682 79.0208 16.6252 81.6249 18.7709C82.5196 19.5026 83.2313 20.4299 83.7042 21.4799C84.1771 22.53 84.3984 23.6743 84.3507 24.8233C84.303 25.9723 83.9875 27.0947 83.4292 28.1026C82.8708 29.1106 82.0846 29.9767 81.1322 30.633C79.4606 31.6642 77.5551 32.264 75.5897 32.3775C71.2815 32.9174 66.9064 32.278 62.9386 30.5284C58.9711 28.75 55.7801 25.6174 53.9474 21.7015C52.9797 23.9693 51.2202 26.4813 48.6688 26.3068C47.9167 26.222 47.1989 25.9484 46.5831 25.5119C45.9674 25.0754 45.474 24.4904 45.1498 23.8123C44.5322 22.4715 44.1399 21.0396 43.9885 19.5733C43.6218 23.1993 42.6402 26.7379 41.0853 30.0399C40.4166 31.4529 39.3257 33.0404 37.707 32.8659C36.0882 32.6915 35.4548 31.1215 34.9973 29.7608C33.5402 25.3498 32.7747 20.7432 32.7275 16.1019C32.3142 20.4243 31.4473 24.6922 30.141 28.8363C29.8726 29.9199 29.3682 30.9322 28.663 31.8018C28.2982 32.2328 27.812 32.5461 27.2666 32.7015C26.7211 32.8569 26.1413 32.8473 25.6014 32.674C24.7001 32.1448 24.0339 31.2973 23.7363 30.3016C22.1369 26.4057 21.1633 22.2853 20.8507 18.0905C20.6807 20.2384 19.9928 22.3144 18.8448 24.1437C18.241 25.0249 17.3539 25.6771 16.328 25.9939C15.3022 26.3107 14.1984 26.2735 13.1967 25.8882C10.9093 24.7543 10.3991 21.4398 8.09407 20.3409C6.65627 19.92 5.14359 19.8129 3.66005 20.0269C2.14685 20.0269 0.387322 19.4163 0.0530115 17.9684C-0.369276 16.1368 1.81254 14.7935 3.71284 14.4795C5.85079 14.2143 8.02136 14.5246 9.99662 15.3779C11.9719 16.2312 13.679 17.596 14.9386 19.3291C15.5505 15.7372 16.5717 12.2259 17.9826 8.86244C18.2998 7.97138 18.8035 7.15692 19.4606 6.47256C19.7925 6.13198 20.2152 5.89207 20.6794 5.78087C21.1437 5.66966 21.6303 5.69175 22.0823 5.84456C22.8197 6.24578 23.3877 6.89557 23.6835 7.67622C25.4833 11.3249 26.496 15.3055 26.6571 19.364C27.2258 14.1206 28.2083 8.92952 29.5955 3.83845C30.0002 2.32079 30.6513 0.576351 32.182 0.105352C32.8811 -0.0390732 33.6084 0.0422032 34.2575 0.337278C34.9066 0.632352 35.4433 1.12572 35.7891 1.74513C36.4688 2.98796 36.8652 4.36352 36.9504 5.77478L38.7099 19.3814C38.9923 15.7466 39.9592 12.1965 41.5603 8.91477C41.9138 8.06781 42.455 7.3106 43.1439 6.69933C43.4892 6.38526 43.9189 6.17696 44.3809 6.09958C44.843 6.0222 45.3178 6.07903 45.748 6.26322C46.3503 6.69276 46.795 7.30514 47.0149 8.00766C48.4328 11.3968 49.2541 15.0019 49.443 18.6662C50.6923 16.6426 52.487 14.3574 54.8624 14.6714C55.6089 14.8551 56.3018 15.2095 56.8853 15.7063C57.4689 16.2031 57.9271 16.8284 58.2231 17.5323C58.8037 18.5964 59.1381 19.7652 59.6835 20.8467C60.175 21.7674 60.7649 22.6329 61.443 23.4285C62.0485 24.1111 62.7544 24.6992 63.5369 25.1729C63.8888 25.4172 64.3111 25.6788 64.7686 25.9231Z" fill="url(#paint18_linear_362_372)"/>
<defs>
<linearGradient id="paint0_linear_362_372" x1="77.1898" y1="19.0856" x2="101.655" y2="38.185" gradientUnits="userSpaceOnUse">
<stop stop-color="#166BEA"/>
<stop offset="1" stop-color="#6F3BDD"/>
</linearGradient>
<linearGradient id="paint1_linear_362_372" x1="77.1898" y1="19.0856" x2="101.655" y2="38.185" gradientUnits="userSpaceOnUse">
<stop stop-color="#166BEA"/>
<stop offset="1" stop-color="#6F3BDD"/>
</linearGradient>
<linearGradient id="paint2_linear_362_372" x1="101.743" y1="19.035" x2="125.256" y2="37.7923" gradientUnits="userSpaceOnUse">
<stop stop-color="#166BEA"/>
<stop offset="1" stop-color="#6F3BDD"/>
</linearGradient>
<linearGradient id="paint3_linear_362_372" x1="101.743" y1="19.035" x2="125.256" y2="37.7923" gradientUnits="userSpaceOnUse">
<stop stop-color="#166BEA"/>
<stop offset="1" stop-color="#6F3BDD"/>
</linearGradient>
<linearGradient id="paint4_linear_362_372" x1="125.964" y1="20.9271" x2="146.973" y2="38.6059" gradientUnits="userSpaceOnUse">
<stop stop-color="#166BEA"/>
<stop offset="1" stop-color="#6F3BDD"/>
</linearGradient>
<linearGradient id="paint5_linear_362_372" x1="125.964" y1="20.9271" x2="146.973" y2="38.6059" gradientUnits="userSpaceOnUse">
<stop stop-color="#166BEA"/>
<stop offset="1" stop-color="#6F3BDD"/>
</linearGradient>
<linearGradient id="paint6_linear_362_372" x1="148.058" y1="20.931" x2="168.987" y2="38.2194" gradientUnits="userSpaceOnUse">
<stop stop-color="#166BEA"/>
<stop offset="1" stop-color="#6F3BDD"/>
</linearGradient>
<linearGradient id="paint7_linear_362_372" x1="148.058" y1="20.931" x2="168.987" y2="38.2194" gradientUnits="userSpaceOnUse">
<stop stop-color="#166BEA"/>
<stop offset="1" stop-color="#6F3BDD"/>
</linearGradient>
<linearGradient id="paint8_linear_362_372" x1="167.721" y1="20.9436" x2="188.877" y2="40.0533" gradientUnits="userSpaceOnUse">
<stop stop-color="#166BEA"/>
<stop offset="1" stop-color="#6F3BDD"/>
</linearGradient>
<linearGradient id="paint9_linear_362_372" x1="167.721" y1="20.9436" x2="188.877" y2="40.0533" gradientUnits="userSpaceOnUse">
<stop stop-color="#166BEA"/>
<stop offset="1" stop-color="#6F3BDD"/>
</linearGradient>
<linearGradient id="paint10_linear_362_372" x1="190.406" y1="16.5342" x2="216.764" y2="32.1322" gradientUnits="userSpaceOnUse">
<stop stop-color="#166BEA"/>
<stop offset="1" stop-color="#6F3BDD"/>
</linearGradient>
<linearGradient id="paint11_linear_362_372" x1="190.406" y1="16.5342" x2="216.764" y2="32.1322" gradientUnits="userSpaceOnUse">
<stop stop-color="#166BEA"/>
<stop offset="1" stop-color="#6F3BDD"/>
</linearGradient>
<linearGradient id="paint12_linear_362_372" x1="214.138" y1="16.297" x2="234.258" y2="24.1881" gradientUnits="userSpaceOnUse">
<stop stop-color="#166BEA"/>
<stop offset="1" stop-color="#6F3BDD"/>
</linearGradient>
<linearGradient id="paint13_linear_362_372" x1="214.138" y1="16.297" x2="234.258" y2="24.1881" gradientUnits="userSpaceOnUse">
<stop stop-color="#166BEA"/>
<stop offset="1" stop-color="#6F3BDD"/>
</linearGradient>
<linearGradient id="paint14_linear_362_372" x1="228.22" y1="20.7093" x2="248.488" y2="36.7134" gradientUnits="userSpaceOnUse">
<stop stop-color="#166BEA"/>
<stop offset="1" stop-color="#6F3BDD"/>
</linearGradient>
<linearGradient id="paint15_linear_362_372" x1="228.22" y1="20.7093" x2="248.488" y2="36.7134" gradientUnits="userSpaceOnUse">
<stop stop-color="#166BEA"/>
<stop offset="1" stop-color="#6F3BDD"/>
</linearGradient>
<linearGradient id="paint16_linear_362_372" x1="247.909" y1="24.6177" x2="273.686" y2="40.7568" gradientUnits="userSpaceOnUse">
<stop stop-color="#166BEA"/>
<stop offset="1" stop-color="#6F3BDD"/>
</linearGradient>
<linearGradient id="paint17_linear_362_372" x1="247.909" y1="24.6177" x2="273.686" y2="40.7568" gradientUnits="userSpaceOnUse">
<stop stop-color="#166BEA"/>
<stop offset="1" stop-color="#6F3BDD"/>
</linearGradient>
<linearGradient id="paint18_linear_362_372" x1="-41.7768" y1="16.462" x2="-19.4" y2="73.3722" gradientUnits="userSpaceOnUse">
<stop stop-color="#166BEA"/>
<stop offset="1" stop-color="#6F3BDD"/>
</linearGradient>
</defs>
</svg>
